<?xml version="1.0" standalone="no"?>
<!DOCTYPE svg PUBLIC "-//W3C//DTD SVG 20010904//EN"
 "http://www.w3.org/TR/2001/REC-SVG-20010904/DTD/svg10.dtd">
<svg version="1.0" xmlns="http://www.w3.org/2000/svg"
 width="350.000000pt" height="350.000000pt" viewBox="0 0 350.000000 350.000000"
 preserveAspectRatio="xMidYMid meet">
<metadata>
Created by potrace 1.14, written by Peter Selinger 2001-2017
</metadata>
<g transform="translate(0.000000,350.000000) scale(0.100000,-0.100000)"
fill="#000000" stroke="none">
<path d="M520 2297 c-38 -19 -38 -54 1 -75 17 -9 43 -27 57 -38 26 -21 26 -22
8 -49 -10 -14 -32 -33 -49 -40 -18 -8 -25 -14 -17 -15 22 0 77 36 90 59 15 29
-1 54 -52 83 -55 30 -60 54 -16 73 18 8 26 14 18 14 -8 1 -26 -5 -40 -12z"/>
<path d="M601 2298 c9 -7 19 -20 23 -28 3 -8 4 -4 3 10 -1 16 -9 26 -22 28
-18 3 -18 3 -4 -10z"/>
<path d="M811 2183 c-22 -42 -38 -79 -36 -82 7 -6 9 -4 53 82 22 42 37 77 32
77 -5 0 -27 -35 -49 -77z"/>
<path d="M406 2188 c-9 -12 -16 -33 -16 -45 0 -25 36 -63 59 -62 10 0 7 4 -7
9 -35 15 -47 51 -28 89 19 36 14 41 -8 9z"/>
<path d="M651 2164 c-12 -15 -21 -33 -21 -41 0 -20 29 -28 51 -14 12 7 19 7
19 1 0 -5 4 -10 9 -10 5 0 7 9 4 19 -3 13 4 29 21 45 27 28 14 36 -16 9 -17
-15 -18 -15 -18 0 0 25 -26 20 -49 -9z m44 -4 c7 -23 -10 -50 -31 -50 -17 0
-18 11 -2 45 14 30 24 32 33 5z"/>
<path d="M836 2149 c-8 -43 -8 -49 5 -49 5 0 7 4 4 10 -3 5 1 23 10 40 13 25
13 30 2 30 -8 0 -17 -14 -21 -31z"/>
<path d="M748 2145 c-7 -16 -8 -29 -2 -35 6 -6 13 4 20 25 13 40 -1 47 -18 10z"/>
<path d="M1479 1983 c0 -5 0 -93 -1 -198 0 -182 1 -190 20 -193 14 -2 23 4 27
18 7 21 7 21 27 3 12 -10 35 -18 59 -18 31 0 46 7 72 33 29 29 32 38 32 92 0
51 -4 63 -29 89 -16 16 -41 33 -57 36 -28 6 -67 -8 -81 -29 -4 -6 -8 22 -8 62
0 40 -5 82 -10 93 -10 18 -49 27 -51 12z m171 -212 c39 -73 -24 -157 -87 -116
-23 15 -25 22 -20 63 3 28 12 51 23 59 27 20 72 16 84 -6z"/>
<path d="M460 1957 l-25 -13 4 -164 c2 -91 7 -169 12 -174 11 -12 148 -20 193
-12 20 4 51 22 71 41 32 30 36 38 33 76 -2 36 -9 47 -35 65 l-32 21 22 21 c25
25 28 81 7 108 -8 9 -29 23 -47 31 -41 17 -170 17 -203 0z m178 -53 c51 -35 8
-90 -80 -100 l-56 -7 -4 57 c-1 31 1 58 7 60 26 11 112 5 133 -10z m17 -158
c40 -17 45 -41 16 -77 -16 -20 -30 -24 -95 -27 l-76 -4 0 55 0 56 43 4 c23 2
50 4 60 5 10 1 33 -5 52 -12z"/>
<path d="M822 1943 c2 -24 8 -28 33 -28 21 0 31 5 33 19 5 22 -13 36 -46 36
-20 0 -23 -4 -20 -27z"/>
<path d="M1790 1939 c0 -28 2 -30 32 -27 57 5 48 57 -9 58 -19 0 -23 -5 -23
-31z"/>
<path d="M2467 1849 c-11 -6 -33 -8 -49 -5 -51 10 -104 -10 -127 -48 -29 -47
-27 -82 9 -117 24 -25 28 -34 20 -50 -6 -10 -8 -19 -4 -19 4 0 -5 -11 -20 -25
-31 -28 -33 -64 -7 -96 15 -19 30 -24 83 -27 109 -7 164 33 139 100 -10 26
-30 36 -113 53 -41 8 -34 21 16 34 74 18 98 68 75 151 -3 11 3 14 22 12 27 -2
45 20 33 39 -7 12 -55 11 -77 -2z m-36 -70 c30 -30 5 -89 -39 -89 -16 0 -55
20 -63 33 -17 26 25 77 63 77 10 0 27 -9 39 -21z m21 -225 c17 -11 7 -35 -18
-44 -38 -15 -69 -12 -95 9 -21 17 -22 21 -9 36 11 14 24 16 64 10 27 -3 53 -8
58 -11z"/>
<path d="M832 1838 c-6 -8 -7 -56 -3 -128 l6 -115 28 -3 27 -3 0 115 c0 63 -3
121 -6 130 -7 19 -38 21 -52 4z"/>
<path d="M955 1836 c-24 -18 -13 -47 17 -43 22 2 23 0 26 -100 3 -102 3 -103
27 -103 28 0 32 11 38 102 4 61 26 98 57 98 31 0 44 -30 50 -114 5 -78 6 -81
30 -81 24 0 25 2 27 78 1 60 6 83 19 98 41 45 84 1 84 -86 0 -60 21 -95 56
-95 31 0 42 27 19 44 -13 9 -20 33 -24 86 -6 65 -10 75 -39 101 -38 34 -65 36
-108 10 -29 -18 -31 -18 -53 0 -13 11 -32 19 -43 19 -25 0 -75 -26 -81 -42 -3
-9 -12 -3 -26 15 -25 30 -48 34 -76 13z"/>
<path d="M1802 1837 c-7 -8 -8 -52 -4 -127 l7 -115 28 -3 27 -3 0 115 c0 63
-3 121 -6 130 -7 19 -37 21 -52 3z"/>
<path d="M1928 1839 c-32 -18 -20 -46 16 -40 19 4 26 -27 26 -116 0 -91 1 -93
23 -93 21 0 24 7 34 70 12 74 30 112 62 130 15 8 24 6 37 -7 13 -13 15 -28 11
-70 -3 -30 -1 -67 5 -84 12 -36 52 -49 76 -25 15 15 15 17 -6 32 -19 13 -22
24 -22 90 0 66 -3 78 -25 99 -34 35 -76 33 -120 -6 -23 -20 -35 -26 -35 -17 0
19 -32 48 -51 48 -8 0 -22 -5 -31 -11z"/>
<path d="M2633 1835 c-33 -14 -43 -38 -22 -51 6 -3 28 -1 50 6 33 11 42 11 64
-4 14 -9 25 -25 25 -36 0 -16 -4 -17 -29 -10 -71 20 -159 -34 -146 -89 9 -40
41 -61 92 -61 24 0 53 5 64 11 15 7 24 7 34 -1 19 -16 79 -9 83 10 1 8 -8 20
-20 25 -21 9 -23 16 -20 66 5 71 -16 115 -63 135 -43 17 -71 17 -112 -1z m106
-144 c8 -5 11 -16 8 -24 -7 -19 -78 -40 -101 -31 -19 7 -22 50 -3 57 20 9 81
7 96 -2z"/>
<path d="M2887 1843 c-12 -11 -8 -40 8 -53 10 -8 15 -38 17 -103 3 -91 3 -92
28 -92 23 0 25 4 28 50 5 111 21 145 67 145 33 0 45 -27 45 -104 0 -82 23
-110 74 -90 21 8 20 20 -4 44 -16 16 -20 33 -20 86 0 59 -3 68 -29 95 -35 34
-77 38 -112 10 -23 -19 -24 -19 -48 0 -25 20 -43 24 -54 12z"/>
</g>
</svg>
